<svg xmlns="http://www.w3.org/2000/svg" width="22.817" height="22.17" viewBox="0 0 22.817 22.17">
  <g id="Grupo_1" data-name="Grupo 1" transform="translate(-0.592 -1)">
    <path id="Caminho_1" data-name="Caminho 1" d="M12,10.189V14" fill="none" stroke="#000" stroke-linecap="round" stroke-linejoin="round" stroke-width="2"/>
    <path id="Caminho_2" data-name="Caminho 2" d="M12,2V5" fill="none" stroke="#000" stroke-linecap="round" stroke-linejoin="round" stroke-width="2"/>
    <path id="Caminho_3" data-name="Caminho 3" d="M19,13V7a2,2,0,0,0-2-2H7A2,2,0,0,0,5,7v6" fill="none" stroke="#000" stroke-linecap="round" stroke-linejoin="round" stroke-width="2"/>
    <path id="Caminho_4" data-name="Caminho 4" d="M19.38,20A11.6,11.6,0,0,0,21,14l-8.188-3.639a2,2,0,0,0-1.624,0L3,14a11.6,11.6,0,0,0,2.81,7.76" fill="none" stroke="#000" stroke-linecap="round" stroke-linejoin="round" stroke-width="2"/>
    <path id="Caminho_5" data-name="Caminho 5" d="M2,21a3.421,3.421,0,0,0,2.5,1c2.5,0,2.5-2,5-2A3.421,3.421,0,0,1,12,21a3.421,3.421,0,0,0,2.5,1c2.5,0,2.5-2,5-2A3.421,3.421,0,0,1,22,21" fill="none" stroke="#000" stroke-linecap="round" stroke-linejoin="round" stroke-width="2"/>
  </g>
</svg>
